<mxfile host="app.diagrams.net" modified="2021-10-06T12:20:00.132Z" agent="5.0 (Windows NT 10.0; Win64; x64) AppleWebKit/537.36 (KHTML, like Gecko) Chrome/94.0.4606.71 Safari/537.36" etag="l9QI6An1xU_I9K30fYPG" version="15.4.3" type="github">
  <diagram id="C5RBs43oDa-KdzZeNtuy" name="Page-1">
    <mxGraphModel dx="782" dy="460" grid="1" gridSize="10" guides="1" tooltips="1" connect="1" arrows="1" fold="1" page="1" pageScale="1" pageWidth="827" pageHeight="1169" math="0" shadow="0">
      <root>
        <mxCell id="WIyWlLk6GJQsqaUBKTNV-0" />
        <mxCell id="WIyWlLk6GJQsqaUBKTNV-1" parent="WIyWlLk6GJQsqaUBKTNV-0" />
        <mxCell id="WIyWlLk6GJQsqaUBKTNV-9" value="Yes" style="edgeStyle=orthogonalEdgeStyle;rounded=0;html=1;jettySize=auto;orthogonalLoop=1;fontSize=11;endArrow=block;endFill=0;endSize=8;strokeWidth=1;shadow=0;labelBackgroundColor=none;" parent="WIyWlLk6GJQsqaUBKTNV-1" target="WIyWlLk6GJQsqaUBKTNV-12" edge="1">
          <mxGeometry y="10" relative="1" as="geometry">
            <mxPoint as="offset" />
            <mxPoint x="270" y="330" as="sourcePoint" />
          </mxGeometry>
        </mxCell>
        <mxCell id="0Tchr0rz9bZmoEHmEKqI-3" value="" style="edgeStyle=orthogonalEdgeStyle;rounded=0;orthogonalLoop=1;jettySize=auto;html=1;" edge="1" parent="WIyWlLk6GJQsqaUBKTNV-1" source="0Tchr0rz9bZmoEHmEKqI-0" target="0Tchr0rz9bZmoEHmEKqI-1">
          <mxGeometry relative="1" as="geometry" />
        </mxCell>
        <mxCell id="0Tchr0rz9bZmoEHmEKqI-0" value="Begin" style="ellipse;whiteSpace=wrap;html=1;" vertex="1" parent="WIyWlLk6GJQsqaUBKTNV-1">
          <mxGeometry x="350" y="20" width="86" height="30" as="geometry" />
        </mxCell>
        <mxCell id="0Tchr0rz9bZmoEHmEKqI-6" value="" style="edgeStyle=orthogonalEdgeStyle;rounded=0;orthogonalLoop=1;jettySize=auto;html=1;" edge="1" parent="WIyWlLk6GJQsqaUBKTNV-1" source="0Tchr0rz9bZmoEHmEKqI-1" target="0Tchr0rz9bZmoEHmEKqI-4">
          <mxGeometry relative="1" as="geometry" />
        </mxCell>
        <mxCell id="0Tchr0rz9bZmoEHmEKqI-1" value="N=arr.length()" style="rounded=0;whiteSpace=wrap;html=1;" vertex="1" parent="WIyWlLk6GJQsqaUBKTNV-1">
          <mxGeometry x="356" y="90" width="74" height="30" as="geometry" />
        </mxCell>
        <mxCell id="0Tchr0rz9bZmoEHmEKqI-8" value="" style="edgeStyle=orthogonalEdgeStyle;rounded=0;orthogonalLoop=1;jettySize=auto;html=1;" edge="1" parent="WIyWlLk6GJQsqaUBKTNV-1" source="0Tchr0rz9bZmoEHmEKqI-4" target="0Tchr0rz9bZmoEHmEKqI-7">
          <mxGeometry relative="1" as="geometry" />
        </mxCell>
        <mxCell id="0Tchr0rz9bZmoEHmEKqI-10" value="" style="edgeStyle=orthogonalEdgeStyle;rounded=0;orthogonalLoop=1;jettySize=auto;html=1;" edge="1" parent="WIyWlLk6GJQsqaUBKTNV-1" source="0Tchr0rz9bZmoEHmEKqI-4" target="0Tchr0rz9bZmoEHmEKqI-9">
          <mxGeometry relative="1" as="geometry" />
        </mxCell>
        <mxCell id="0Tchr0rz9bZmoEHmEKqI-4" value="N&amp;gt;=1" style="rhombus;whiteSpace=wrap;html=1;" vertex="1" parent="WIyWlLk6GJQsqaUBKTNV-1">
          <mxGeometry x="353" y="150" width="80" height="60" as="geometry" />
        </mxCell>
        <mxCell id="0Tchr0rz9bZmoEHmEKqI-7" value="End" style="ellipse;whiteSpace=wrap;html=1;" vertex="1" parent="WIyWlLk6GJQsqaUBKTNV-1">
          <mxGeometry x="531" y="85" width="70" height="40" as="geometry" />
        </mxCell>
        <mxCell id="0Tchr0rz9bZmoEHmEKqI-12" value="" style="edgeStyle=orthogonalEdgeStyle;rounded=0;orthogonalLoop=1;jettySize=auto;html=1;" edge="1" parent="WIyWlLk6GJQsqaUBKTNV-1" source="0Tchr0rz9bZmoEHmEKqI-9" target="0Tchr0rz9bZmoEHmEKqI-11">
          <mxGeometry relative="1" as="geometry" />
        </mxCell>
        <mxCell id="0Tchr0rz9bZmoEHmEKqI-9" value="middle =n/2&lt;br&gt;left = middle+1&lt;br&gt;index=0" style="rounded=0;whiteSpace=wrap;html=1;" vertex="1" parent="WIyWlLk6GJQsqaUBKTNV-1">
          <mxGeometry x="356" y="220" width="90" height="60" as="geometry" />
        </mxCell>
        <mxCell id="0Tchr0rz9bZmoEHmEKqI-14" value="" style="edgeStyle=orthogonalEdgeStyle;rounded=0;orthogonalLoop=1;jettySize=auto;html=1;" edge="1" parent="WIyWlLk6GJQsqaUBKTNV-1" source="0Tchr0rz9bZmoEHmEKqI-11" target="0Tchr0rz9bZmoEHmEKqI-13">
          <mxGeometry relative="1" as="geometry" />
        </mxCell>
        <mxCell id="0Tchr0rz9bZmoEHmEKqI-19" value="" style="edgeStyle=orthogonalEdgeStyle;rounded=0;orthogonalLoop=1;jettySize=auto;html=1;" edge="1" parent="WIyWlLk6GJQsqaUBKTNV-1" source="0Tchr0rz9bZmoEHmEKqI-11" target="0Tchr0rz9bZmoEHmEKqI-18">
          <mxGeometry relative="1" as="geometry" />
        </mxCell>
        <mxCell id="0Tchr0rz9bZmoEHmEKqI-11" value="index&amp;gt;middle" style="rhombus;whiteSpace=wrap;html=1;" vertex="1" parent="WIyWlLk6GJQsqaUBKTNV-1">
          <mxGeometry x="470" y="290" width="83" height="70" as="geometry" />
        </mxCell>
        <mxCell id="0Tchr0rz9bZmoEHmEKqI-16" value="" style="edgeStyle=orthogonalEdgeStyle;rounded=0;orthogonalLoop=1;jettySize=auto;html=1;" edge="1" parent="WIyWlLk6GJQsqaUBKTNV-1" source="0Tchr0rz9bZmoEHmEKqI-13" target="0Tchr0rz9bZmoEHmEKqI-15">
          <mxGeometry relative="1" as="geometry">
            <Array as="points">
              <mxPoint x="403" y="370" />
              <mxPoint x="297" y="370" />
              <mxPoint x="297" y="410" />
            </Array>
          </mxGeometry>
        </mxCell>
        <mxCell id="0Tchr0rz9bZmoEHmEKqI-13" value="right index =0&lt;br&gt;index=middle" style="rounded=0;whiteSpace=wrap;html=1;" vertex="1" parent="WIyWlLk6GJQsqaUBKTNV-1">
          <mxGeometry x="353" y="390" width="100" height="50" as="geometry" />
        </mxCell>
        <mxCell id="0Tchr0rz9bZmoEHmEKqI-22" style="edgeStyle=orthogonalEdgeStyle;rounded=0;orthogonalLoop=1;jettySize=auto;html=1;exitX=1;exitY=1;exitDx=0;exitDy=0;entryX=0.5;entryY=1;entryDx=0;entryDy=0;" edge="1" parent="WIyWlLk6GJQsqaUBKTNV-1" source="0Tchr0rz9bZmoEHmEKqI-15" target="0Tchr0rz9bZmoEHmEKqI-23">
          <mxGeometry relative="1" as="geometry">
            <mxPoint x="580" y="450" as="targetPoint" />
            <Array as="points">
              <mxPoint x="210" y="450" />
              <mxPoint x="590" y="450" />
            </Array>
          </mxGeometry>
        </mxCell>
        <mxCell id="0Tchr0rz9bZmoEHmEKqI-15" value="index&amp;gt;n" style="rhombus;whiteSpace=wrap;html=1;" vertex="1" parent="WIyWlLk6GJQsqaUBKTNV-1">
          <mxGeometry x="120" y="350" width="120" height="120" as="geometry" />
        </mxCell>
        <mxCell id="0Tchr0rz9bZmoEHmEKqI-17" value="" style="rounded=0;whiteSpace=wrap;html=1;" vertex="1" parent="WIyWlLk6GJQsqaUBKTNV-1">
          <mxGeometry x="160" y="200" width="120" height="60" as="geometry" />
        </mxCell>
        <mxCell id="0Tchr0rz9bZmoEHmEKqI-21" style="edgeStyle=orthogonalEdgeStyle;rounded=0;orthogonalLoop=1;jettySize=auto;html=1;exitX=1;exitY=0.5;exitDx=0;exitDy=0;entryX=0;entryY=0;entryDx=0;entryDy=0;" edge="1" parent="WIyWlLk6GJQsqaUBKTNV-1" source="0Tchr0rz9bZmoEHmEKqI-18" target="0Tchr0rz9bZmoEHmEKqI-11">
          <mxGeometry relative="1" as="geometry">
            <mxPoint x="400" y="290" as="targetPoint" />
            <Array as="points">
              <mxPoint x="280" y="300" />
              <mxPoint x="400" y="300" />
              <mxPoint x="400" y="308" />
            </Array>
          </mxGeometry>
        </mxCell>
        <mxCell id="0Tchr0rz9bZmoEHmEKqI-18" value="left(index)=arr(index)" style="whiteSpace=wrap;html=1;" vertex="1" parent="WIyWlLk6GJQsqaUBKTNV-1">
          <mxGeometry x="160" y="200" width="120" height="60" as="geometry" />
        </mxCell>
        <mxCell id="0Tchr0rz9bZmoEHmEKqI-26" value="" style="edgeStyle=orthogonalEdgeStyle;rounded=0;orthogonalLoop=1;jettySize=auto;html=1;" edge="1" parent="WIyWlLk6GJQsqaUBKTNV-1" source="0Tchr0rz9bZmoEHmEKqI-23" target="0Tchr0rz9bZmoEHmEKqI-25">
          <mxGeometry relative="1" as="geometry" />
        </mxCell>
        <mxCell id="0Tchr0rz9bZmoEHmEKqI-23" value="MergeSort(left)" style="rounded=0;whiteSpace=wrap;html=1;" vertex="1" parent="WIyWlLk6GJQsqaUBKTNV-1">
          <mxGeometry x="645" y="370" width="120" height="50" as="geometry" />
        </mxCell>
        <mxCell id="0Tchr0rz9bZmoEHmEKqI-24" value="MergeSort(right)" style="rounded=0;whiteSpace=wrap;html=1;" vertex="1" parent="WIyWlLk6GJQsqaUBKTNV-1">
          <mxGeometry x="645" y="330" width="120" height="30" as="geometry" />
        </mxCell>
        <mxCell id="0Tchr0rz9bZmoEHmEKqI-27" style="edgeStyle=orthogonalEdgeStyle;rounded=0;orthogonalLoop=1;jettySize=auto;html=1;exitX=0.5;exitY=0;exitDx=0;exitDy=0;" edge="1" parent="WIyWlLk6GJQsqaUBKTNV-1" source="0Tchr0rz9bZmoEHmEKqI-25" target="0Tchr0rz9bZmoEHmEKqI-7">
          <mxGeometry relative="1" as="geometry" />
        </mxCell>
        <mxCell id="0Tchr0rz9bZmoEHmEKqI-25" value="Merge(arr, left , right)" style="rounded=0;whiteSpace=wrap;html=1;" vertex="1" parent="WIyWlLk6GJQsqaUBKTNV-1">
          <mxGeometry x="610" y="210" width="120" height="50" as="geometry" />
        </mxCell>
        <mxCell id="0Tchr0rz9bZmoEHmEKqI-28" value="Merge Sort Recursively" style="text;html=1;strokeColor=none;fillColor=none;align=center;verticalAlign=middle;whiteSpace=wrap;rounded=0;" vertex="1" parent="WIyWlLk6GJQsqaUBKTNV-1">
          <mxGeometry x="140" y="75" width="160" height="60" as="geometry" />
        </mxCell>
        <mxCell id="0Tchr0rz9bZmoEHmEKqI-29" value="Made By Saksham Awasthi" style="text;html=1;strokeColor=none;fillColor=none;align=center;verticalAlign=middle;whiteSpace=wrap;rounded=0;" vertex="1" parent="WIyWlLk6GJQsqaUBKTNV-1">
          <mxGeometry x="620" y="430" width="170" height="30" as="geometry" />
        </mxCell>
        <mxCell id="0Tchr0rz9bZmoEHmEKqI-30" value="20BCS5918" style="text;html=1;strokeColor=none;fillColor=none;align=center;verticalAlign=middle;whiteSpace=wrap;rounded=0;" vertex="1" parent="WIyWlLk6GJQsqaUBKTNV-1">
          <mxGeometry x="630" y="450" width="80" height="30" as="geometry" />
        </mxCell>
      </root>
    </mxGraphModel>
  </diagram>
</mxfile>
